<svg width="800" height="800" viewBox="0 0 800 800" fill="none" xmlns="http://www.w3.org/2000/svg">
<circle cx="400" cy="400" r="400" fill="#2E2E2E"/>
<circle cx="400" cy="400" r="361" fill="#F8F4E2"/>
<path d="M392 164L216 276.443L392 272.638V164ZM408 164V272.638L583.7 276.443L408 164ZM451.1 214.034C453.9 214.094 456.9 214.785 460.3 216.116C462.6 217.027 464.4 218.029 465.9 219.19C467.4 220.342 468.7 221.693 469.6 222.985C471.1 225.048 471.8 227.03 472.2 229.243C474.6 227.471 477.4 226.259 480.4 225.398C483.8 224.667 487.6 225.048 491.5 226.63C496.1 228.452 499.6 230.825 501.8 233.749C504 236.682 505.3 239.726 505.8 242.89C506.1 244.602 506.1 246.305 505.9 247.907C505.8 249.609 505.3 251.211 504.7 252.613C504.2 254.115 503.5 255.616 502.4 256.918C501.4 258.22 500.3 259.521 498.9 260.523C496.4 262.525 493.4 263.827 489.8 264.428C486.2 265.028 482.1 264.428 477.5 262.625C473.5 261.023 470.5 258.821 468.5 255.917C466.9 253.314 465.6 250.41 465.1 247.506C463.1 249.008 460.9 250.009 458.2 250.41C455.2 251.011 451.7 250.41 447.5 248.808C445.1 247.807 443 246.705 441.3 245.504C439.5 244.202 438.1 242.89 437 241.418C434.9 238.835 433.8 236.042 433.5 233.058C433.3 230.154 433.7 227.401 434.6 224.897C435.1 223.606 435.9 222.324 436.7 220.972C437.7 219.871 438.7 218.76 439.8 217.708C442.2 215.936 445 214.734 448.3 214.174C449.2 214.054 450.1 214.004 451.1 214.034ZM352 219.33C356.8 219.38 362.9 222.905 361 229.383C357 236.292 350.7 241.569 343 244.202C335.6 246.705 328 248.608 321 246.104C318 243.801 308 236.692 306 242.7C304.8 258.02 307 255.717 295 260.523V236.092C305 232.187 316 231.586 326 237.393C334 241.599 345 238.895 350 231.586C351 225.078 342 227.08 338 228.282C335 219.971 345.8 219.841 351 219.37C351.3 219.34 351.6 219.33 352 219.33ZM452.5 223.796C451.6 223.806 450.7 223.936 449.7 224.156C447.3 224.767 445.5 226.329 444.6 228.832C443.6 231.255 443.8 233.578 445.2 235.721C446.6 237.944 448.5 239.456 451.2 240.507C454.1 241.659 456.6 241.919 459.2 241.238C461.7 240.677 463.5 239.115 464.4 236.692C465.4 234.189 465.2 231.866 463.7 229.673C462.3 227.531 460.2 225.899 457.3 224.747C455.7 224.086 454.1 223.786 452.5 223.796ZM481.4 233.959C480.3 234.009 479.2 234.229 478.2 234.61C475.5 235.781 473.7 237.574 472.8 240.007C471.8 242.51 471.9 245.103 473.2 247.606C474.4 250.21 476.8 252.212 480.4 253.714C483.3 254.815 486.2 255.016 489 254.315C491.8 253.514 493.7 251.611 494.8 248.708C495.9 245.804 495.9 243.171 494.3 240.687C492.8 238.214 490.6 236.312 487.7 235.17C485.4 234.269 483.3 233.879 481.4 233.959ZM386 288.759L199 292.864L271 486.009L386 288.759ZM414 288.759L529.4 486.009L600.6 292.864L414 288.759ZM400 296.268L283 496.723H517.1L400 296.268ZM516.6 312.689L535.8 355.243L543 351.939L547.1 361.151L540 364.355L546.3 378.372L535.9 383.078L529.6 369.061L499.4 382.678L495.5 373.967C496.9 364.755 499.9 346.132 504.4 318.196L506.2 317.395L507 317.095L510.1 315.593L516.6 312.689ZM290.7 324.804H292C294.9 324.804 297.5 325.305 299.8 326.406C306.7 329.611 310.5 334.817 311.5 341.726C312.4 348.635 310.5 357.045 305.8 366.858C301.1 376.57 295.8 383.379 290 387.184C284 390.989 277.7 391.289 270.9 388.185C265 385.381 261.5 381.476 260.3 376.27C259.1 370.963 259.4 366.557 261.2 362.753L270.8 367.158C269.9 368.86 269.7 370.963 270 373.466C270.3 376.07 271.9 377.972 275 379.474C278.1 380.876 281.1 380.776 284.2 379.274C287.3 377.872 290.5 374.067 293.9 367.959C294.4 366.958 295 365.857 295.6 364.655C293.8 365.857 292 366.658 290.1 367.258C286.9 368.16 283.5 367.759 279.8 366.057C275.5 364.054 272.3 360.55 270.3 355.443C268.2 350.437 268.8 344.73 271.9 338.221L272 338.121C273.1 335.818 274.4 333.716 276 332.114C277.4 330.412 279.1 329.01 280.8 327.908C283.9 326.006 287.2 324.905 290.7 324.804ZM196 329.911V503.331L258 497.624L196 329.911ZM604 329.911L542.1 497.624L604 503.331V329.911ZM512.1 330.512C510.5 340.224 508.5 353.04 505.9 368.76L525.5 359.949L517.3 342.026L512.1 330.512ZM292.4 334.617C290.9 334.717 289.5 335.017 288.1 335.718C285.1 337.12 283 339.223 281.6 342.227C280 345.631 279.5 348.735 280.4 351.839C281.3 354.843 283.1 356.945 285.8 358.247C288.6 359.549 291.5 359.549 294.3 358.247C297.1 356.945 299.4 354.642 301.1 351.238C302.5 348.334 302.8 345.331 302.1 342.227C301.3 339.123 299.5 336.92 296.7 335.618C295.3 334.917 293.8 334.617 292.4 334.617ZM395.6 382.378H411.2V466.685H395.6V396.395C386.8 402.203 380.3 406.008 376.2 407.61L369.9 410.413V396.395L376.2 393.592C380.3 391.79 386.8 388.185 395.6 382.378ZM597.3 388.585H597.8C601.4 388.886 603.5 395.594 602.5 399.7C602.4 418.323 603.6 438.95 592.8 455.07C591.9 456.272 590.6 456.972 589.1 457.573C583.3 453.468 586.1 446.259 590.3 442.053C591.3 449.363 595.8 439.15 596.9 436.446C598.2 433.242 600.5 418.724 595.9 426.233C596.6 430.238 589.1 439.35 586.6 434.344C581.6 419.925 586.6 403.805 593.6 390.788C594.9 389.387 596.1 388.686 597.3 388.585ZM204 389.487C205 389.587 205 390.488 206 393.091V454.269C199 447.26 203 436.847 202 427.835C201 420.226 204 411.515 201 404.606C196 402.904 195 387.584 198 391.89C202 396.696 202 389.186 204 389.487ZM594.9 400.1C593.9 400.1 592.9 401.101 592.1 403.805C590.5 409.712 588.8 417.222 591.4 423.129C596.5 421.127 596.8 413.517 598 408.611C599.2 405.307 597.1 400.2 594.9 400.1ZM219 412.216C223 411.715 226 419.425 228 423.029C231.28 435.745 232.21 436.947 231 439.851C226 436.146 226.13 432.441 225.64 430.939C224.64 427.936 224 425.633 222 422.529C218.66 425.332 219 431.64 219 435.946C219 434.344 220 433.643 223 435.245C230 447.861 235 464.382 230 478.8L228 479.902C217 474.094 216 460.477 214 449.863C213 437.548 213 425.132 216 413.117C217 412.516 218 412.216 219 412.216ZM577.2 417.022C581.7 417.322 578 452.266 578 472.092L573.6 478.8V436.446C569 443.956 564.5 445.558 567.5 435.545C572.4 422.128 575.4 416.922 577.2 417.022ZM221 443.255C217 447.961 219 456.071 220 461.678C222 467.185 227 471.891 226 463.28C226 457.573 227 451.465 223 446.86C223 446.259 222 444.957 221 443.255ZM287 512.743L400 636L512.8 512.743H287ZM266 513.044L212 517.95L276 559.102C274 556.399 271 553.395 269 550.291C264 543.382 259 536.674 250 533.67C241 527.162 246 528.363 253 531.067C252 529.264 252 528.463 253 528.463C255 528.263 262 532.669 263 534.771L288 566.412L353 608.165L266 513.044ZM534.2 513.044L491.8 559.403C498.2 556.299 503.1 550.892 508.8 546.987C511.2 545.585 512.5 545.084 513.1 545.084C515.2 545.084 507.7 552.193 505.4 555.398C496 565.21 489.4 578.427 476.8 584.535L495.7 560.003C493.4 561.305 489.7 563.207 487.5 564.109L447.2 608.165L521.7 560.504C527.1 553.796 523.6 554.897 516 559.603L504.6 565.611C516 551.893 531.4 541.98 544.6 529.965C547.8 528.463 554.1 524.358 555.6 524.258C556.4 524.158 555.8 525.259 552.8 528.463L540.2 544.484C550.2 536.874 541.1 548.389 535.7 549.991C535 550.992 534.3 551.993 533.5 552.894L588 517.95L534.2 513.044ZM375.9 529.765C377.3 529.765 378.6 529.865 380 529.965V573.42H367V543.382C362 541.981 356 545.084 351 543.082C347 540.178 352 536.273 356 537.174C359 537.074 363 537.375 365 533.97C368.4 530.866 372 529.765 375.9 529.765ZM409 530.466C409 530.466 410 530.566 410 530.666C414 531.467 417 530.966 420 531.067H445.6C447.1 534.07 446.4 538.877 442.3 538.977C438.4 539.477 434.5 538.576 430.6 539.177C425.9 539.377 421 537.375 416 539.577C413 541.28 412 548.088 417 545.685C421 544.584 424.3 543.883 427.8 544.784C434.8 545.885 442.8 547.688 446.9 553.996C449 557.1 449.6 561.305 447.6 564.709C444 571.218 436 573.12 429.3 574.422C426.9 574.822 424.6 575.824 422 575.623C415 575.022 407 574.522 402 568.514C399 566.011 399 561.405 404 561.806C407 561.706 412 561.405 414 565.31C417 569.015 423 568.314 427 567.313C430.6 566.812 434.5 564.709 434.6 560.604C435.2 556.399 431.5 553.395 427.7 552.794C422 550.491 416 554.196 410 554.597C407 555.698 401 555.097 401 550.191C402 545.986 404 542.081 404 537.675C404 534.671 406 530.666 409 530.466ZM542.5 535.472C542.3 535.272 535.5 541.28 532.6 543.583L516.8 556.699C525.4 552.294 533.3 547.087 539.1 539.277C541.7 536.674 542.6 535.572 542.5 535.472ZM295 549.69C298 549.69 303 554.296 305 556.699L331 587.839C323 585.736 318 580.73 313 574.121C307 566.812 302 557.5 292 554.496C283 549.49 287 548.088 294 552.294C294 550.391 294 549.69 295 549.69Z" fill="#2E2E2E"/>
</svg>
