<svg width="800" height="800" viewBox="0 0 800 800" fill="none" xmlns="http://www.w3.org/2000/svg">
<circle cx="400" cy="400" r="400" fill="black"/>
<circle cx="400" cy="400" r="361" fill="#F8F4E2"/>
<path d="M328.255 190.002C327.59 190.018 326.909 190.055 326.283 190.2C319.583 191.263 316.184 198.127 311.292 204.599C305.76 280.202 297.946 349.427 292.405 425.122C315.591 423.386 347.456 423.742 380.181 423.297C415.783 422.814 450.477 420.378 467.463 414.224C502.469 401.541 529.476 369.428 552.033 321.715C482.695 279.5 408.058 229.326 344.035 195.082C338.471 192.762 332.914 189.904 328.255 190.002ZM298.076 220.921C256.61 299.323 219.933 363.482 178.1 443.269C177.288 464.706 181.518 477.044 186.927 484.888C192.349 492.75 197.263 494.784 204.531 494.307C215.015 490.831 228.189 481.494 241.811 469.7C246.976 465.098 280.055 436.399 282.888 430.053C288.079 359.113 292.848 292.273 298.076 220.921ZM416.474 224.669C466.946 255.984 515.198 287.478 559.134 313.48C572.265 321.251 597.165 330.467 615.99 336.065C598.073 317.92 577.623 302.325 554.844 291.092L416.474 224.669ZM384.323 253.911C389.419 253.778 394.472 255.21 399.462 258.152C409.459 263.963 418.742 275.641 427.323 293.213C435.336 309.621 438.355 324.808 436.396 338.777C434.455 352.674 427.793 363.131 416.425 370.139C413.372 372.021 410.135 373.589 406.661 374.824L395.369 377.684L389.106 364.863C392.976 364.654 396.686 364.037 400.251 362.989C403.815 361.94 407.1 360.457 410.113 358.6C418.147 353.648 422.744 346.768 423.92 337.938C425.114 329.038 422.93 318.057 417.313 304.949C416.935 310.383 415.455 315.252 412.924 319.594C410.393 323.937 406.956 327.423 402.618 330.098C393.62 335.645 384.957 336.926 376.63 333.895C368.321 330.792 361.5 323.763 356.166 312.839C350.945 302.147 349.469 291.897 351.777 282.068C354.085 272.239 359.81 264.537 368.888 258.941C374.09 255.734 379.227 254.044 384.323 253.911ZM383.189 267.176C380.246 267.285 377.3 268.243 374.313 270.085C368.85 273.453 365.579 278.331 364.499 284.681C363.437 290.961 364.741 297.81 368.395 305.294C372.072 312.824 376.573 317.77 381.857 320.137L398.032 318.608C403.495 315.24 406.733 310.439 407.795 304.16C408.898 297.856 407.626 290.93 403.949 283.399C400.294 275.915 395.811 270.997 390.487 268.655C388.497 267.75 386.483 267.267 384.471 267.176C384.052 267.157 383.609 267.16 383.189 267.176ZM275.442 306.675C276.492 306.616 277.348 306.921 278.006 307.562C280.126 309.565 279.984 314.816 277.513 323.342C275.791 329.282 273.346 335.101 270.264 340.798C267.196 346.448 263.703 351.544 259.761 356.036C263.186 354.298 265.329 354.868 266.122 357.762C266.942 360.633 266.346 365.51 264.347 372.407C261.278 382.993 256.853 392.87 251.131 402.044C245.409 411.218 238.852 418.899 231.406 425.122C228.907 427.211 226.454 428.938 224.059 430.25C221.676 431.589 219.312 432.527 217.007 433.11L221.1 419.106C222.654 419.586 224.558 419.342 226.87 418.317C229.182 417.292 231.812 415.562 234.71 413.139C239.763 408.916 244.104 403.892 247.778 398.099C251.479 392.284 254.324 385.963 256.309 379.114C258.142 372.792 258.346 368.904 256.901 367.427C255.496 365.879 252.61 366.916 248.222 370.583L241.269 376.402L244.721 364.468L251.97 358.403C255.932 355.091 259.405 351.15 262.325 346.568C265.259 341.938 267.476 336.942 269.031 331.577C270.628 326.069 270.76 322.765 269.426 321.665C268.133 320.496 265.479 321.591 261.437 324.969C259.23 326.814 256.718 329.196 253.942 332.169C251.166 335.143 248.033 338.812 244.474 343.165L248.222 330.246C251.724 326.157 254.907 322.633 257.788 319.644C260.696 316.632 263.312 314.126 265.678 312.148C269.883 308.634 273.133 306.804 275.442 306.675ZM563.079 327.287C540.78 374.418 512.374 410.294 475.994 425.221L481.517 604.765C491.026 599.456 492.823 596.276 497.001 586.224L621.07 358.551C622.8 354.116 622.959 351.246 620.231 349.379C599.772 343.654 582.196 336.662 563.079 327.287ZM469.435 358.699L473.775 367.526L401.829 402.882L397.44 394.055L469.435 358.699ZM574.963 391.836L570.032 404.756C564.552 412.078 557.131 421.934 547.792 434.294C538.406 446.716 532.424 454.648 529.892 458.161C525.102 464.774 521.451 470.206 518.944 474.434C516.391 478.724 514.403 482.716 512.978 486.417C510.655 492.449 509.917 496.921 510.759 499.78C511.573 502.651 513.836 503.305 517.514 501.802C520.122 500.736 523.182 498.796 526.736 495.934C530.262 493.083 534.363 489.285 538.965 484.543L532.949 500.027C528.644 503.879 524.808 507.038 521.41 509.495C518.012 511.951 515.098 513.685 512.682 514.672C506.314 517.275 502.371 516.391 500.847 512.059C499.323 507.727 500.463 500.639 504.249 490.805C506.045 486.142 508.227 481.549 510.808 476.949C513.342 472.411 516.973 466.782 521.657 460.084C522.909 458.333 526.706 453.199 533.097 444.649L560.021 408.849L530.977 420.684L535.957 407.764L574.963 391.836ZM466.181 428.771C446.111 434.791 413.849 436.057 380.279 436.513C351.789 436.783 312.784 434.541 289.792 438.683C276.366 451.619 261.912 465.45 247.778 477.688C235.193 488.229 222.304 499.178 206.405 504.218C204.45 504.376 204.132 504.155 202.164 503.922C208.058 509.228 214.256 512.442 220.952 516.25L447.294 606.886C448.483 607.117 461.021 611.762 471.26 606.935L466.181 428.771ZM357.448 478.823C358.459 478.789 359.461 478.792 360.456 478.823C361.593 478.857 362.693 478.952 363.809 479.069C372.734 480.008 379.831 483.4 385.112 489.277C388.888 493.479 390.439 497.753 389.698 502.098C389.003 506.423 386.122 510.368 381.118 513.933C388.853 512.203 396.06 512.211 402.716 513.883C409.418 515.535 414.869 518.706 419.088 523.401C425.489 530.524 427.322 537.267 424.611 543.668C421.945 550.049 414.945 555.669 403.554 560.483C392.164 565.297 381.698 567.074 372.143 565.858C362.634 564.623 354.677 560.457 348.276 553.333C344.057 548.638 342.385 543.881 343.246 539.033C344.107 534.184 347.379 529.779 353.108 525.817V525.768C346.169 527.251 339.721 527.267 333.729 525.768C327.783 524.249 322.908 521.39 319.132 517.187C313.852 511.311 312.596 505.423 315.385 499.534C318.219 493.625 324.773 488.525 335.011 484.198C342.884 480.87 350.369 479.059 357.448 478.823ZM354.982 489.08C350.886 489.155 346.559 490.187 342.062 492.088C336.021 494.641 332.318 497.654 330.869 501.21C329.466 504.748 330.455 508.448 333.877 512.256C337.299 516.064 341.608 518.331 346.846 519.061C352.13 519.772 357.817 518.853 363.858 516.3C369.853 513.766 373.554 510.734 375.003 507.177C376.498 503.601 375.565 499.89 372.143 496.082C368.721 492.274 364.306 490.018 358.977 489.326C357.656 489.148 356.348 489.054 354.982 489.08ZM385.408 520.935C380.749 520.935 375.925 522.021 370.91 524.14C364.269 526.947 360.138 530.4 358.582 534.545C357.072 538.672 358.298 542.934 362.28 547.366C366.263 551.799 371.317 554.524 377.37 555.453C383.469 556.364 389.813 555.4 396.454 552.593C403.094 549.786 407.225 546.285 408.782 542.139C410.308 537.961 409.085 533.668 405.133 529.269C401.15 524.837 396.093 522.19 389.994 521.28C388.48 521.048 386.961 520.933 385.408 520.935Z" fill="#2E2E2E"/>
</svg>
