<svg width="800" height="800" viewBox="0 0 800 800" fill="none" xmlns="http://www.w3.org/2000/svg">
<circle cx="400" cy="400" r="400" fill="black"/>
<circle cx="400" cy="400" r="361" fill="#F8F4E2"/>
<path d="M444.635 265.712C438.594 265.712 430.54 285.848 436.58 303.97C420.472 303.97 424.499 265.712 424.499 265.712C420.472 267.726 408.391 263.698 408.391 263.698C418.459 261.685 422.279 255.84 418.459 251.617C380.201 209.333 358.366 289.247 370.134 301.956C420.472 356.321 402.351 372.43 402.351 372.43C414.432 404.647 484.906 473.107 484.906 473.107C519.136 416.728 486.919 378.471 478.865 372.43C470.811 366.389 468.797 384.511 468.797 384.511C462.757 368.402 440.608 372.43 440.608 372.43C452.689 342.227 486.919 348.268 486.919 348.268C486.919 348.268 484.906 352.294 478.865 352.294C472.825 352.294 499 362.362 505.041 366.389C511.081 370.416 507.055 358.335 507.055 358.335C523.162 372.43 521.15 392.566 525.176 402.633C529.204 412.7 533.231 400.619 533.231 400.619C539.272 420.755 531.217 440.89 533.231 448.945C535.245 456.998 543.298 450.958 543.298 450.958C539.272 489.215 525.176 509.351 525.176 509.351C615.786 585.866 682.233 563.716 682.233 563.716C670.152 573.783 629.88 601.974 607.732 589.892C585.582 577.811 555.379 595.933 555.379 595.933C543.298 577.811 503.028 559.689 476.852 573.783C332.551 651.485 269.457 527.473 261.402 517.405C253.349 507.337 247.308 531.499 247.308 531.499C211.065 497.27 243.28 452.972 241.267 440.89C239.254 428.809 221.132 450.958 221.132 450.958C207.037 414.714 267.444 368.402 267.444 358.335C267.444 348.268 247.308 358.335 247.308 358.335C267.444 320.078 329.864 322.091 329.864 322.091C329.864 322.091 325.836 299.942 319.795 291.888C313.755 283.834 309.728 297.929 309.728 297.929C301.673 273.767 315.768 263.698 327.85 243.563C333.89 231.482 313.755 235.509 313.755 235.509C331.876 209.333 354.026 220.911 366.107 206.816C372.147 200.775 358.052 195.741 358.052 195.741C374.161 187.185 390.269 205.306 404.364 194.232C416.73 184.515 380.201 173.09 380.201 173.09C452.689 171.076 436.58 203.292 476.852 233.495C476.852 241.55 478.865 255.645 478.865 255.645C503.028 299.942 474.838 301.956 474.838 301.956C486.919 285.848 450.675 265.712 444.635 265.712ZM352.012 394.579C215.091 446.931 356.039 583.852 440.608 529.487C440.608 517.405 412.418 515.391 412.418 515.391C408.391 463.039 364.093 461.026 364.093 461.026C372.148 430.822 353.636 391.376 352.012 394.579Z" fill="black"/>
</svg>
